<svg width="279" height="274" viewBox="0 0 279 274" fill="none" xmlns="http://www.w3.org/2000/svg">
<path d="M96.6951 78.9851C101.562 77.9421 114.368 76.2328 120.162 75.5085L123.638 73.3357V48.9999L134.503 50.3036L142.759 47.2616L151.451 48.9999L159.273 43.785L161.446 68.99C171.006 67.976 191.257 65.6004 195.777 64.2098C200.296 62.8191 208.959 59.5744 212.725 58.1258L222.72 126.788C224.313 129.395 227.5 136.783 227.5 145.474C227.5 156.338 226.631 196.753 226.631 198.926C226.631 200.664 221.996 203.706 219.678 205.01C218.954 206.893 217.244 210.92 216.201 211.963C214.898 213.267 95.3914 230.215 89.742 230.215C84.0926 230.215 74.0976 229.78 72.7939 227.608C71.4902 225.435 69.3173 175.894 69.3173 174.156C69.3173 172.417 63.6679 120.269 61.4951 109.839C59.7568 101.496 54.1074 93.9053 51.5 91.153L61.4951 84.6345L60.1914 81.1579C63.5231 81.3028 71.5771 81.5056 77.1395 81.1579C84.0926 80.7234 90.6112 80.2888 96.6951 78.9851Z" fill="white"/>
<path d="M80.5919 223.635C81.022 223.635 81.4344 223.464 81.7385 223.161C82.0426 222.857 82.2134 222.446 82.2134 222.017C82.2134 221.588 82.0426 221.176 81.7385 220.873C81.4344 220.569 81.022 220.399 80.5919 220.399C80.1619 220.399 79.7494 220.569 79.4453 220.873C79.1412 221.176 78.9704 221.588 78.9704 222.017C78.9704 222.446 79.1412 222.857 79.4453 223.161C79.7494 223.464 80.1619 223.635 80.5919 223.635Z" fill="#151718"/>
<path d="M126.669 59.0783C127.966 70.7787 128.97 82.4878 129.679 94.2054C129.795 96.2634 133.038 96.2893 132.922 94.2054C132.221 82.4878 131.218 70.7787 129.912 59.0783C129.692 57.0334 126.449 57.0075 126.669 59.0783Z" fill="#151718"/>
<path d="M133.038 95.9139C134.17 94.5438 135.387 93.2468 136.684 92.031C136.986 91.7258 137.155 91.3143 137.155 90.8856C137.155 90.4568 136.986 90.0453 136.684 89.7401C136.375 89.445 135.963 89.2803 135.536 89.2803C135.108 89.2803 134.697 89.445 134.388 89.7401C133.095 90.9561 131.882 92.253 130.755 93.623C130.45 93.9225 130.266 94.323 130.237 94.749C130.243 95.1763 130.415 95.5843 130.716 95.888C131.019 96.1909 131.429 96.3628 131.858 96.3669C132.071 96.3663 132.281 96.3237 132.477 96.2415C132.673 96.1593 132.85 96.0391 133 95.888L133.038 95.9139Z" fill="#151718"/>
<path d="M135.322 92.1605C135.892 92.2899 136.463 92.4452 137.021 92.6264L137.747 92.8853L138.163 93.0406H138.072L138.279 93.1312C139.316 93.5721 140.307 94.114 141.237 94.749C141.612 94.9593 142.054 95.016 142.47 94.9074C142.887 94.7987 143.244 94.5332 143.468 94.1666C143.672 93.7929 143.725 93.3558 143.616 92.9445C143.508 92.5332 143.246 92.1787 142.884 91.9534C140.866 90.5369 138.587 89.5338 136.178 89.0024C135.763 88.8985 135.325 88.9592 134.955 89.1716C134.584 89.3841 134.311 89.7318 134.193 90.1414C134.134 90.3479 134.116 90.564 134.141 90.7774C134.165 90.9909 134.232 91.1973 134.337 91.3849C134.442 91.5725 134.583 91.7376 134.752 91.8707C134.921 92.0038 135.114 92.1023 135.322 92.1605Z" fill="#151718"/>
<path d="M143.702 94.1537C144.157 93.3812 144.659 92.6377 145.206 91.9275L144.96 92.2511C145.465 91.6 146.006 90.9778 146.581 90.3873C146.745 90.2401 146.878 90.0612 146.97 89.8613C147.062 89.6614 147.113 89.4448 147.118 89.2248C147.124 89.0048 147.084 88.786 147.002 88.5818C146.92 88.3775 146.797 88.1922 146.641 88.037C146.484 87.8818 146.298 87.7601 146.093 87.6793C145.887 87.5985 145.668 87.5603 145.447 87.5671C145.227 87.5739 145.01 87.6255 144.81 87.7187C144.611 87.8119 144.432 87.9448 144.285 88.1093C142.978 89.4348 141.84 90.9173 140.9 92.5229C140.686 92.8963 140.627 93.3387 140.736 93.7549C140.845 94.1711 141.113 94.528 141.483 94.749C141.857 94.9553 142.296 95.0099 142.71 94.9014C143.123 94.7929 143.478 94.5298 143.702 94.1666V94.1537Z" fill="#151718"/>
<path d="M145.622 90.5685C145.98 90.5427 146.34 90.5427 146.698 90.5685H146.27C146.832 90.6494 147.381 90.8017 147.905 91.0215L147.515 90.8532C148.01 91.0743 148.48 91.3477 148.916 91.6686L148.579 91.4098C148.845 91.617 149.096 91.8419 149.332 92.0828C149.635 92.3831 150.046 92.5517 150.473 92.5517C150.901 92.5517 151.311 92.3831 151.615 92.0828C151.913 91.7782 152.079 91.3694 152.079 90.9438C152.079 90.5182 151.913 90.1095 151.615 89.8048C150.842 89.0003 149.911 88.365 148.879 87.9394C147.847 87.5138 146.738 87.3072 145.622 87.3327C145.191 87.3327 144.779 87.5032 144.475 87.8066C144.171 88.11 144 88.5215 144 88.9506C144 89.3797 144.171 89.7912 144.475 90.0946C144.779 90.398 145.191 90.5685 145.622 90.5685Z" fill="#151718"/>
<path d="M152.289 91.7463C153.442 90.9245 154.41 89.8707 155.13 88.6529C155.239 88.4698 155.311 88.2669 155.34 88.0559C155.37 87.845 155.357 87.6303 155.303 87.4243C155.249 87.2182 155.154 87.0251 155.024 86.8561C154.894 86.687 154.732 86.5455 154.546 86.4397C154.353 86.3247 154.138 86.2515 153.914 86.2247C153.691 86.1979 153.464 86.2183 153.249 86.2844C152.855 86.3934 152.514 86.6418 152.289 86.9833C152.107 87.2875 151.908 87.5813 151.693 87.8634L151.952 87.5269C151.5 88.1073 150.977 88.6291 150.395 89.08L150.72 88.8341L150.616 88.9118C150.433 89.0115 150.278 89.1536 150.162 89.326C150.024 89.4817 149.926 89.6682 149.876 89.8696C149.815 90.0849 149.798 90.3101 149.825 90.5322C149.851 90.7544 149.922 90.969 150.032 91.1639C150.253 91.5225 150.6 91.7857 151.005 91.9016L151.433 91.9663C151.72 91.9671 152.002 91.8911 152.25 91.7463H152.289Z" fill="#151718"/>
<path d="M154.326 89.4166H153.898C154.684 89.518 155.452 89.7271 156.181 90.0378L155.792 89.8696C156.135 90.0126 156.468 90.1769 156.791 90.3614C156.984 90.4763 157.199 90.5506 157.422 90.5795C157.645 90.6084 157.872 90.5915 158.088 90.5297C158.491 90.4167 158.835 90.1523 159.048 89.7919C159.26 89.4192 159.318 88.9791 159.212 88.564C159.106 88.1489 158.842 87.7911 158.477 87.5657C157.093 86.7905 155.558 86.3225 153.976 86.1938C153.759 86.1869 153.543 86.2231 153.34 86.3004C153.138 86.3776 152.952 86.4943 152.795 86.6437C152.638 86.7931 152.513 86.9721 152.426 87.1704C152.339 87.3687 152.293 87.5823 152.289 87.7987C152.288 88.0129 152.33 88.2253 152.412 88.4231C152.495 88.6209 152.616 88.8003 152.769 88.9506C153.083 89.235 153.487 89.4 153.911 89.4166H154.326Z" fill="#151718"/>
<path d="M159.424 88.6788C156.829 77.2373 156.959 65.4722 157.089 53.8106C157.089 53.3815 156.918 52.97 156.614 52.6666C156.31 52.3632 155.897 52.1927 155.467 52.1927C155.037 52.1927 154.625 52.3632 154.321 52.6666C154.017 52.97 153.846 53.3815 153.846 53.8106C153.703 65.7698 153.651 77.8197 156.298 89.546C156.765 91.578 159.891 90.7108 159.424 88.6788Z" fill="#151718"/>
<path d="M153.937 52.8269L150.045 58.2759C149.931 58.4693 149.859 58.6841 149.832 58.9068C149.805 59.1295 149.825 59.3554 149.889 59.5702C150.003 59.9728 150.268 60.316 150.629 60.528C151 60.7386 151.439 60.797 151.853 60.6908C152.267 60.5845 152.624 60.3219 152.847 59.9585L156.739 54.4966C156.852 54.3032 156.926 54.0889 156.955 53.8665C156.984 53.6442 156.968 53.4182 156.907 53.2023C156.794 52.8036 156.535 52.4618 156.181 52.2445C155.806 52.0414 155.368 51.9886 154.956 52.0968C154.544 52.2051 154.188 52.4662 153.963 52.8269H153.937Z" fill="#151718"/>
<path d="M151.939 57.8617L145.868 54.2636C145.495 54.054 145.055 53.9976 144.641 54.1064C144.227 54.2151 143.871 54.4804 143.65 54.846C143.44 55.2183 143.383 55.6575 143.492 56.0706C143.601 56.4838 143.867 56.8384 144.234 57.0593L150.304 60.6574C150.488 60.7645 150.692 60.8343 150.903 60.863C151.114 60.8917 151.329 60.8786 151.535 60.8245C151.74 60.7705 151.934 60.6764 152.103 60.5478C152.273 60.4192 152.415 60.2585 152.523 60.075C152.63 59.8914 152.7 59.6885 152.729 59.478C152.758 59.2674 152.744 59.0532 152.69 58.8477C152.636 58.6422 152.542 58.4493 152.413 58.2802C152.284 58.111 152.123 57.9688 151.939 57.8617Z" fill="#151718"/>
<path d="M143.209 54.7813C142.77 55.3063 142.379 55.8694 142.041 56.4639C141.709 57.0591 141.431 57.6828 141.211 58.3277C141.149 58.5435 141.132 58.7696 141.161 58.9922C141.19 59.2148 141.264 59.4291 141.38 59.622C141.592 59.9824 141.936 60.2468 142.34 60.3597C142.556 60.4215 142.783 60.4385 143.006 60.4095C143.229 60.3806 143.444 60.3064 143.637 60.1914C143.989 59.9693 144.251 59.63 144.376 59.2337C144.443 59.0267 144.521 58.8236 144.61 58.6253L144.441 59.0136C144.752 58.289 145.153 57.6063 145.634 56.9816L145.375 57.2146L145.518 57.0204C145.676 56.8826 145.793 56.7033 145.855 56.5027C145.953 56.3245 146.003 56.1236 145.998 55.9203C145.992 55.4891 145.82 55.0768 145.518 54.7684C145.214 54.4691 144.803 54.3016 144.376 54.3024C144.164 54.2976 143.953 54.3365 143.757 54.4167C143.56 54.4969 143.383 54.6166 143.235 54.7684L143.209 54.7813Z" fill="#151718"/>
<path d="M143.559 57.6546L139.901 54.4189C139.593 54.1228 139.186 53.952 138.759 53.94C138.327 53.9461 137.914 54.1176 137.605 54.4189C137.306 54.7257 137.139 55.1366 137.139 55.5643C137.139 55.9921 137.306 56.403 137.605 56.7098L141.263 59.9455C141.577 60.2378 141.988 60.4038 142.417 60.4115C142.844 60.4095 143.253 60.2425 143.559 59.9455C143.863 59.6386 144.035 59.2253 144.039 58.7936C144.035 58.3658 143.862 57.9568 143.559 57.6546Z" fill="#151718"/>
<path d="M137.384 54.3542C135.526 55.3198 133.817 56.5492 132.312 58.0041C132.037 58.3131 131.89 58.7155 131.903 59.1288C131.916 59.542 132.087 59.9347 132.381 60.2262C132.674 60.5177 133.069 60.686 133.483 60.6963C133.897 60.7067 134.3 60.5585 134.608 60.282C135.151 59.7634 135.723 59.2752 136.32 58.8195L135.983 59.0654C136.94 58.3623 137.955 57.7431 139.019 57.2146C139.388 56.996 139.656 56.6414 139.765 56.2273C139.874 55.8132 139.816 55.3728 139.602 55.0013C139.379 54.6382 139.023 54.375 138.61 54.2665C138.197 54.1581 137.758 54.2126 137.384 54.4189V54.3542Z" fill="#151718"/>
<path d="M134.53 58.1853C133.07 56.4957 131.375 55.0226 129.497 53.8106C129.125 53.5977 128.683 53.5394 128.268 53.6484C127.853 53.7573 127.498 54.0248 127.279 54.393C127.069 54.7653 127.012 55.2045 127.121 55.6176C127.23 56.0308 127.496 56.3853 127.863 56.6062C128.373 56.9428 128.866 57.2922 129.341 57.6546L129.017 57.4087C130.191 58.3193 131.269 59.3472 132.234 60.4762C132.463 60.6987 132.751 60.8496 133.065 60.9102C133.378 60.9709 133.702 60.9386 133.998 60.8175C134.293 60.6964 134.546 60.4917 134.726 60.2286C134.906 59.9655 135.005 59.6557 135.01 59.3372C134.992 58.9087 134.822 58.5005 134.53 58.1853Z" fill="#151718"/>
<path d="M127.058 55.2343C126.963 57.1155 126.998 59.001 127.162 60.8774C127.176 61.3045 127.341 61.7129 127.629 62.0293C127.94 62.3271 128.353 62.494 128.784 62.4953C129.213 62.4919 129.623 62.3204 129.926 62.0177C130.23 61.715 130.402 61.3055 130.405 60.8774C130.241 59.001 130.206 57.1155 130.301 55.2343C130.298 54.8063 130.126 54.3967 129.823 54.094C129.519 53.7914 129.109 53.6198 128.68 53.6164C128.253 53.6263 127.846 53.7999 127.544 54.1012C127.242 54.4025 127.068 54.8083 127.058 55.2343Z" fill="#151718"/>
<path d="M129.614 76.8749C109.873 83.5939 89.0771 86.6983 68.2294 86.0385C66.1409 85.9737 66.1409 89.2095 68.2294 89.2742C89.3753 89.9415 110.469 86.7978 130.496 79.9941C132.455 79.3211 131.612 76.2018 129.627 76.8749H129.614Z" fill="#151718"/>
<path d="M66.4911 88.0705C69.9677 105.388 71.0963 123.016 72.4583 140.632C73.8204 158.247 75.1306 175.811 75.8311 193.439C76.2073 202.952 76.2981 212.568 78.9185 221.797C78.9756 222.002 79.0725 222.193 79.2038 222.361C79.3351 222.528 79.4981 222.668 79.6836 222.773C79.8691 222.877 80.0735 222.944 80.2849 222.97C80.4964 222.996 80.7109 222.98 80.9162 222.923C81.1215 222.866 81.3135 222.769 81.4813 222.638C81.6491 222.507 81.7894 222.345 81.8942 222.159C81.999 221.974 82.0663 221.77 82.0921 221.559C82.1179 221.348 82.1019 221.134 82.0448 220.93C79.7098 212.711 79.4504 204.104 79.165 195.678C78.8277 186.765 78.3607 177.856 77.764 168.951C76.6354 151.452 75.3771 134.005 73.7166 116.493C72.8581 106.67 71.4898 96.898 69.6174 87.2163C69.2023 85.1713 66.076 86.0385 66.4911 88.0705Z" fill="#151718"/>
<path d="M80.1898 223.428C88.3752 224.722 96.5218 223.428 104.5 221.551C112.478 219.674 120.533 217.344 128.472 215.002C144.35 210.316 160.021 205.031 175.484 199.147C184.132 195.859 192.693 192.408 201.168 188.792C203.075 187.977 201.428 185.181 199.534 185.997C170.013 198.671 139.582 209.119 108.495 217.254C99.5832 219.584 90.334 221.874 81.0589 220.36C79.0093 220.024 78.1402 223.143 80.1898 223.479V223.428Z" fill="#151718"/>
<path d="M199.69 188.559C201.248 190.127 202.922 191.577 204.697 192.895C206.543 194.494 208.691 195.709 211.014 196.467C214.906 197.412 217.669 194.824 218.798 191.394C219.34 189.555 219.683 187.663 219.822 185.751C220.151 183.041 220.415 180.336 220.614 177.636C220.977 172.64 221.154 167.639 221.146 162.635C221.146 142.12 218.305 121.748 215.049 101.531C213.22 90.1025 211.157 78.6869 209.471 67.2324C209.159 65.1874 206.033 66.0546 206.344 68.0996C212.026 105.336 220.614 142.871 217.111 180.703C216.878 183.292 216.683 185.88 216.203 188.391C215.918 189.918 215.49 191.847 214.193 192.856C212.169 194.435 209.328 192.209 207.706 191.044C205.653 189.611 203.734 187.995 201.973 186.217C201.663 185.942 201.26 185.796 200.846 185.809C200.431 185.821 200.038 185.992 199.746 186.285C199.453 186.578 199.285 186.972 199.274 187.385C199.264 187.799 199.413 188.2 199.69 188.508V188.559Z" fill="#151718"/>
<path d="M207.564 65.4592C199.78 69.0573 191.543 70.0151 183.15 70.8435L157.309 73.4321C155.247 73.6391 155.221 76.8749 157.309 76.6678L184.421 74.0015C193.009 73.1602 201.285 71.9695 209.198 68.3067C211.092 67.4136 209.445 64.6309 207.564 65.511V65.4592Z" fill="#151718"/>
<path d="M81.3184 223.803C100.336 225.253 119.197 221.59 137.773 218.004C156.894 214.329 176.119 211.417 195.448 209.087C202.492 208.246 212.662 208.116 215.619 200.182C215.683 199.942 215.69 199.69 215.641 199.446C215.592 199.203 215.488 198.974 215.336 198.776C215.185 198.579 214.99 198.419 214.767 198.308C214.544 198.197 214.299 198.139 214.05 198.137C187.095 201.204 160.356 205.929 133.985 212.284C126.539 214.087 119.124 216.02 111.738 218.082C111.324 218.197 110.972 218.472 110.76 218.846C110.548 219.219 110.494 219.662 110.61 220.075C110.725 220.489 111 220.84 111.375 221.051C111.749 221.262 112.193 221.316 112.607 221.201C138.495 213.98 164.805 208.36 191.387 204.376C198.929 203.237 206.483 202.24 214.05 201.386L212.493 199.341C211.378 202.331 208.199 203.664 205.32 204.414C201.429 205.227 197.491 205.789 193.528 206.097C184.447 207.197 175.445 208.401 166.416 209.76C148.255 212.517 130.301 216.71 112.101 219.247C101.916 220.777 91.5962 221.211 81.3184 220.541C79.2428 220.386 79.2428 223.622 81.3184 223.777V223.803Z" fill="#151718"/>
<path d="M140.394 216.167C163.277 209.048 187.846 210.679 210.664 203.353C212.312 202.822 212.143 199.962 210.236 200.169C196.823 201.593 183.487 203.556 170.23 206.058C168.18 206.446 169.049 209.566 171.086 209.19C184.058 206.74 197.108 204.82 210.236 203.431L209.808 200.26C186.977 207.585 162.408 205.955 139.538 213.073C137.553 213.695 138.396 216.827 140.394 216.192V216.167Z" fill="#151718"/>
<path d="M197.575 203.923C203.675 204.155 209.751 203.046 215.373 200.674C217.669 199.864 219.574 198.218 220.705 196.066C221.833 193.478 221.639 190.371 221.807 187.653C222.599 175.138 223.221 162.544 222.119 150.015C221.539 143.013 220.306 136.08 218.434 129.307C218.31 128.905 218.035 128.567 217.665 128.365C217.296 128.163 216.863 128.112 216.457 128.223C216.05 128.334 215.703 128.598 215.489 128.96C215.275 129.322 215.21 129.752 215.308 130.161C218.228 141.233 219.629 152.649 219.472 164.097C219.472 169.831 219.265 175.552 218.953 181.272C218.798 184.133 218.616 186.993 218.434 189.841C218.266 192.429 218.434 195.16 215.944 196.791C213.288 198.346 210.368 199.399 207.33 199.897C204.126 200.578 200.849 200.861 197.575 200.739C195.487 200.661 195.5 203.897 197.575 203.974V203.923Z" fill="#151718"/>
<path d="M68.1516 88.4847C77.8029 90.8662 87.8434 88.2776 97.3909 86.5432L128.07 81.0295C130.12 80.6542 129.251 77.535 127.214 77.9103L97.806 83.191C88.492 84.8736 78.4515 87.6822 69.0337 85.3654C67.01 84.8736 66.1409 87.954 68.1645 88.4847H68.1516Z" fill="#151718"/>
<path d="M66.3484 86.9833C68.5797 109.185 70.9536 131.373 73.4702 153.549C73.7037 155.594 76.9467 155.62 76.7132 153.549C74.1966 131.416 71.8227 109.228 69.5915 86.9833C69.3839 84.9254 66.1409 84.8995 66.3484 86.9833Z" fill="#151718"/>
<path d="M218.707 129.98L218.292 123.638C218.282 123.212 218.108 122.806 217.806 122.505C217.504 122.203 217.097 122.03 216.67 122.02C216.241 122.023 215.831 122.195 215.527 122.497C215.224 122.8 215.052 123.21 215.049 123.638L215.464 129.98C215.464 130.409 215.635 130.82 215.939 131.124C216.243 131.427 216.655 131.598 217.085 131.598C217.515 131.598 217.928 131.427 218.232 131.124C218.536 130.82 218.707 130.409 218.707 129.98Z" fill="#151718"/>
<path d="M68.1645 90.1025L61.4839 91.0344C61.2815 91.0886 61.0921 91.1831 60.9271 91.3121C60.7622 91.4411 60.625 91.602 60.5239 91.7851C60.4065 91.977 60.3308 92.1914 60.3018 92.4144C60.2727 92.6374 60.291 92.8639 60.3553 93.0794C60.4679 93.4856 60.7326 93.8331 61.0947 94.0501C61.4959 94.2499 61.9528 94.3091 62.3919 94.2184L69.1245 93.2736C69.5363 93.1586 69.8859 92.8861 70.0973 92.5152C70.3087 92.1443 70.3647 91.7051 70.2531 91.2933C70.1398 90.8837 69.8695 90.535 69.5007 90.3226C69.1027 90.1123 68.6421 90.0526 68.2035 90.1543L68.1645 90.1025Z" fill="#151718"/>
<path d="M60.5758 93.8948C63.7021 97.7777 64.9864 102.644 65.7647 107.446C66.556 112.882 66.8025 118.396 67.3343 123.858C68.5278 135.938 70.1104 147.94 72.0822 159.865C73.1545 166.664 74.3782 173.433 75.7533 180.172C76.1684 182.217 79.2947 181.35 78.8796 179.318C76.3803 167.005 74.2961 154.619 72.627 142.159C71.8227 136.119 71.1179 130.019 70.5125 123.858C69.9677 118.279 69.6823 112.662 68.891 107.032C68.0997 101.402 66.4911 96.0433 62.8719 91.6039C61.5747 89.986 59.2786 92.2899 60.5758 93.8948Z" fill="#151718"/>
<path d="M70.4736 103.136L69.1764 97.1953C68.8132 95.5515 67.97 93.1959 65.8036 93.4548L67.4251 95.0726L67.3473 93.6877C67.3439 93.2597 67.172 92.8501 66.8686 92.5475C66.5653 92.2448 66.1548 92.0732 65.7258 92.0699C65.2965 92.073 64.8851 92.2419 64.5779 92.5411C64.2708 92.8404 64.0917 93.2467 64.0783 93.6748L64.1561 95.0597C64.1561 95.8492 64.8696 96.7811 65.7777 96.6775C66.1409 96.6775 65.9204 96.6775 65.6998 96.6128C65.4793 96.5481 65.3626 96.3798 65.622 96.6128C65.3885 96.3928 65.622 96.6128 65.622 96.6905C65.622 96.7681 65.7517 97.0399 65.622 96.7811C65.8555 97.5059 65.9852 98.2566 66.1539 99.0073L67.2435 103.99C67.3676 104.392 67.6434 104.729 68.0125 104.932C68.3817 105.134 68.8152 105.185 69.2214 105.074C69.6276 104.963 69.9745 104.699 70.1889 104.337C70.4032 103.975 70.4681 103.545 70.3698 103.136H70.4736Z" fill="#151718"/>
<path d="M202.881 190.32L184.071 198.642C178 201.334 171.968 204.22 165.715 206.408C159.629 208.624 153.288 210.072 146.841 210.718C141.068 211.261 135.049 210.964 129.847 213.902C129.628 214.028 129.441 214.203 129.301 214.413C129.161 214.623 129.071 214.862 129.038 215.113C129.005 215.363 129.031 215.618 129.113 215.856C129.195 216.095 129.331 216.312 129.51 216.49C131.08 217.784 132.805 217.784 134.699 217.396C137.293 216.969 139.888 216.413 142.353 215.778C142.558 215.721 142.75 215.625 142.918 215.494C143.085 215.363 143.226 215.2 143.331 215.015C143.435 214.83 143.503 214.626 143.528 214.415C143.554 214.204 143.538 213.99 143.481 213.785C143.424 213.58 143.327 213.389 143.196 213.221C143.065 213.054 142.901 212.914 142.716 212.809C142.53 212.705 142.326 212.638 142.115 212.612C141.903 212.586 141.689 212.602 141.483 212.659C139.771 213.086 138.033 213.487 136.295 213.824C135.283 214.031 132.675 214.976 131.767 214.199L131.443 216.788C136.749 213.798 143.351 214.51 149.202 213.772C155.528 212.996 161.742 211.48 167.713 209.255C173.836 206.964 179.751 204.169 185.719 201.489L204.567 193.115C206.474 192.261 204.827 189.478 202.933 190.32H202.881Z" fill="#151718"/>
<path d="M147.932 116.669C140.726 116.615 132.372 119.917 128.507 126.259C127.543 127.852 127.051 129.68 127.086 131.537C127.121 133.393 127.681 135.202 128.703 136.758C130.8 140.135 134.283 142.224 137.657 144.151C138.032 144.369 138.479 144.431 138.9 144.322C139.321 144.213 139.681 143.944 139.901 143.572C140.121 143.2 140.183 142.757 140.074 142.34C139.964 141.923 139.692 141.566 139.317 141.348C136.565 139.778 133.552 138.1 131.75 135.459C130.857 134.275 130.374 132.836 130.374 131.357C130.374 129.878 130.857 128.439 131.75 127.255C135.288 122.341 142.036 119.873 147.932 119.917C148.367 119.917 148.783 119.745 149.091 119.441C149.398 119.137 149.57 118.724 149.57 118.293C149.57 117.862 149.398 117.449 149.091 117.145C148.783 116.84 148.367 116.669 147.932 116.669Z" fill="#151718"/>
<path d="M137.581 142.181C127.572 151.22 119.416 162.087 113.558 174.187C112.652 176.059 115.469 177.705 116.386 175.821C122.109 163.952 130.097 153.293 139.907 144.432C141.468 143.025 139.142 140.731 137.581 142.138V142.181Z" fill="#151718"/>
<path d="M113.591 175.832C114.535 177.4 115.813 178.745 117.336 179.772C117.718 179.986 118.168 180.044 118.592 179.934C119.003 179.816 119.353 179.55 119.575 179.187C119.687 179 119.76 178.792 119.788 178.576C119.816 178.36 119.799 178.141 119.739 177.932C119.61 177.533 119.343 177.191 118.985 176.969L118.483 176.601L118.832 176.86C118.12 176.312 117.481 175.676 116.932 174.966L117.184 175.302C116.911 174.956 116.659 174.594 116.43 174.219C116.209 173.857 115.858 173.59 115.447 173.472C115.022 173.366 114.571 173.428 114.192 173.646C113.822 173.848 113.547 174.186 113.427 174.587C113.318 175.008 113.377 175.453 113.591 175.832Z" fill="#151718"/>
<path d="M119.542 179.718C122.578 177.365 125.204 174.535 127.317 171.34C127.434 171.156 127.513 170.95 127.549 170.735C127.584 170.519 127.576 170.299 127.524 170.087C127.471 169.875 127.377 169.676 127.245 169.501C127.113 169.326 126.948 169.179 126.757 169.07C126.567 168.96 126.357 168.889 126.138 168.862C125.92 168.834 125.698 168.851 125.487 168.91C125.275 168.969 125.077 169.07 124.906 169.207C124.734 169.344 124.592 169.513 124.489 169.706C124.226 170.095 123.964 170.474 123.691 170.853C123.56 171.026 123.44 171.199 123.309 171.362L123.102 171.643C122.523 172.358 121.944 173.05 121.311 173.721C120.062 175.053 118.707 176.284 117.26 177.401C116.956 177.707 116.785 178.119 116.785 178.549C116.785 178.978 116.956 179.39 117.26 179.696C117.577 179.986 117.992 180.147 118.423 180.147C118.854 180.147 119.269 179.986 119.586 179.696L119.542 179.718Z" fill="#151718"/>
<path d="M124.598 172.065L127.633 173.505C128.596 174.058 129.618 174.505 130.68 174.836C131.146 174.958 131.635 174.968 132.107 174.867C132.579 174.766 133.019 174.557 133.394 174.255C133.768 173.953 134.066 173.569 134.262 173.132C134.458 172.695 134.548 172.218 134.523 171.741C134.486 170.885 134.193 170.061 133.683 169.37C133.41 168.959 132.209 167.866 132.35 167.325C132.35 167.411 132.35 167.325 132.569 167.249C132.792 167.232 133.016 167.266 133.224 167.346C134.098 167.789 134.937 168.295 135.735 168.862C136.501 169.344 137.399 169.578 138.305 169.532C139.211 169.485 140.08 169.16 140.791 168.602C142.211 167.314 142.003 165.203 141.206 163.644C140.665 162.931 140.225 162.148 139.896 161.317C139.836 161.142 139.836 160.952 139.896 160.776C139.896 160.776 139.71 160.776 139.896 160.863C141.184 161.285 142.211 162.27 143.652 162.194C145.89 162.086 146.764 159.889 146.426 157.973C145.938 155.824 144.844 153.856 143.27 152.301C141.828 150.764 139.514 153.07 140.955 154.596C142.068 155.691 142.854 157.069 143.226 158.579C143.303 159.001 143.15 158.979 143.488 158.958C143.161 158.958 142.538 158.514 142.189 158.33C141.624 157.945 140.97 157.709 140.288 157.645C139.606 157.581 138.918 157.69 138.291 157.962C137.62 158.387 137.103 159.012 136.816 159.748C136.53 160.484 136.488 161.292 136.696 162.053C136.907 162.802 137.239 163.511 137.679 164.153C137.996 164.64 138.673 165.409 138.575 166.047C138.575 166.307 138.411 166.35 137.974 166.275C137.286 166.071 136.649 165.724 136.107 165.257C135.479 164.756 134.747 164.4 133.963 164.213C133.18 164.025 132.364 164.013 131.575 164.175C130.799 164.369 130.121 164.839 129.671 165.495C129.22 166.152 129.027 166.949 129.129 167.736C129.278 168.665 129.678 169.536 130.287 170.258C130.556 170.577 130.804 170.913 131.029 171.264C130.975 171.167 131.28 171.849 131.259 171.838C131.237 171.827 131.575 171.838 131.488 171.687C131.297 171.603 131.1 171.535 130.898 171.481C130.407 171.275 129.937 171.015 129.468 170.788L126.192 169.251C124.303 168.342 122.643 171.135 124.543 172.055L124.598 172.065Z" fill="#151718"/>
<path d="M143.215 154.812L148.533 148.881C148.694 148.732 148.823 148.553 148.912 148.354C149.002 148.155 149.05 147.94 149.054 147.722C149.058 147.504 149.017 147.287 148.935 147.085C148.853 146.883 148.73 146.699 148.575 146.545C148.419 146.391 148.234 146.269 148.03 146.188C147.826 146.106 147.607 146.066 147.387 146.07C147.168 146.074 146.951 146.121 146.75 146.21C146.549 146.299 146.368 146.427 146.218 146.586L140.9 152.518C140.739 152.666 140.61 152.846 140.521 153.045C140.431 153.244 140.383 153.459 140.379 153.677C140.375 153.895 140.416 154.111 140.498 154.314C140.581 154.516 140.703 154.699 140.859 154.854C141.014 155.008 141.2 155.129 141.404 155.211C141.607 155.293 141.826 155.333 142.046 155.329C142.266 155.325 142.483 155.277 142.684 155.188C142.884 155.1 143.065 154.972 143.215 154.812Z" fill="#151718"/>
<path d="M146.709 148.221C148.578 149.616 150.732 150.589 153.02 151.07C155.308 151.552 157.675 151.531 159.954 151.009C162.234 150.487 164.37 149.477 166.213 148.049C168.056 146.621 169.561 144.81 170.623 142.744C175.078 133.76 171.223 123.261 162.684 118.304C160.076 116.828 157.197 115.883 154.215 115.527C151.234 115.17 148.21 115.407 145.323 116.226C144.936 116.368 144.618 116.65 144.431 117.013C144.243 117.377 144.2 117.798 144.31 118.192C144.419 118.585 144.674 118.924 145.023 119.141C145.372 119.359 145.791 119.438 146.196 119.365C154.397 117.135 163.722 120.263 167.707 128.024C171.212 134.842 168.614 144.486 161.09 147.355C159.122 148.149 156.982 148.435 154.871 148.185C152.761 147.935 150.749 147.158 149.024 145.926C147.386 144.649 145.05 146.933 146.709 148.221Z" fill="#151718"/>
<path d="M157.727 127.147C158.142 121.215 158.885 112.892 165.371 110.218C166.584 109.652 167.944 109.469 169.266 109.694C170.588 109.918 171.809 110.54 172.763 111.474C173.626 112.41 174.265 113.526 174.631 114.741C174.998 115.955 175.084 117.236 174.881 118.488C174.357 121.908 172.152 124.787 169.596 127.028C168.024 128.413 170.339 130.708 171.911 129.322C174.849 126.903 176.949 123.633 177.917 119.971C178.319 118.284 178.347 116.53 177.998 114.831C177.649 113.132 176.932 111.529 175.897 110.132C174.798 108.697 173.31 107.602 171.607 106.973C169.903 106.344 168.055 106.209 166.277 106.582C164.431 107.002 162.701 107.817 161.205 108.968C159.71 110.12 158.486 111.581 157.618 113.249C155.237 117.492 154.812 122.395 154.451 127.147C154.298 129.236 157.574 129.225 157.727 127.147Z" fill="#151718"/>
<path d="M154.484 122.244C152.016 121.356 149.101 120.663 146.84 122.384C144.58 124.105 144.602 127.233 146.032 129.56C148.544 133.674 154.397 136.217 159.026 134.193C161.636 133.035 163.296 129.712 161.593 127.136C161.366 126.773 161.007 126.51 160.591 126.401C160.174 126.292 159.732 126.346 159.354 126.551C158.981 126.77 158.711 127.126 158.6 127.541C158.49 127.956 158.549 128.398 158.764 128.77C158.764 128.77 158.983 129.171 158.917 129.019C158.917 129.084 159.016 129.474 158.994 129.279C159.02 129.538 158.99 129.8 158.906 130.048C158.775 130.337 158.586 130.598 158.349 130.812C158.112 131.026 157.834 131.189 157.531 131.292C156.054 131.788 154.447 131.746 152.999 131.173C151.531 130.665 150.237 129.757 149.265 128.554C148.83 128.004 148.508 127.375 148.315 126.703C148.218 126.399 148.196 126.076 148.249 125.761C148.288 125.542 148.391 125.339 148.544 125.177C148.749 124.994 148.981 124.845 149.232 124.733C149.578 124.593 149.951 124.53 150.324 124.549C151.482 124.626 152.618 124.908 153.676 125.383C154.096 125.493 154.542 125.435 154.92 125.223C155.298 125.01 155.576 124.66 155.696 124.246C155.801 123.83 155.741 123.39 155.528 123.017C155.314 122.644 154.964 122.367 154.55 122.244H154.484Z" fill="#151718"/>
</svg>
